{
	"asset":{
		"generator":"Khronos glTF Blender I/O v4.5.48",
		"version":"2.0"
	},
	"scene":0,
	"scenes":[
		{
			"name":"Scene",
			"nodes":[
				0,
				1,
				2,
				3,
				4,
				5,
				6
			]
		}
	],
	"nodes":[
		{
			"mesh":0,
			"name":"zhuti",
			"translation":[
				10.213510513305664,
				6.086978435516357,
				0.7022722959518433
			]
		},
		{
			"mesh":1,
			"name":"caoping",
			"scale":[
				10.329179763793945,
				10.329179763793945,
				10.329179763793945
			],
			"translation":[
				10.604669570922852,
				-1.0360901355743408,
				0.10354077816009521
			]
		},
		{
			"mesh":2,
			"name":"shuij.001",
			"rotation":[
				0.18295341730117798,
				0.7947565913200378,
				-0.5004848837852478,
				0.2905251383781433
			],
			"scale":[
				1.1175960302352905,
				1.0854018926620483,
				1.0501892566680908
			],
			"translation":[
				12.872340202331543,
				10.919243812561035,
				0.11217322200536728
			]
		},
		{
			"mesh":3,
			"name":"shuij",
			"scale":[
				4.093760013580322,
				4.093760013580322,
				4.093760013580322
			],
			"translation":[
				10.636445045471191,
				3.215815782546997,
				0.3313760757446289
			]
		},
		{
			"mesh":4,
			"name":"shui",
			"scale":[
				4.153658390045166,
				4.153658390045166,
				4.153658390045166
			],
			"translation":[
				10.708187103271484,
				3.3213350772857666,
				0.29692935943603516
			]
		},
		{
			"mesh":5,
			"name":"mut",
			"rotation":[
				0.6279488205909729,
				-0.6279489398002625,
				0.3250850439071655,
				0.32508498430252075
			],
			"scale":[
				1.0670615434646606,
				1.0670615434646606,
				1.0670615434646606
			],
			"translation":[
				5.231027603149414,
				10.826220512390137,
				0.21659895777702332
			]
		},
		{
			"mesh":6,
			"name":"hengmu",
			"rotation":[
				0.6279488205909729,
				-0.6279489398002625,
				0.3250850439071655,
				0.32508498430252075
			],
			"scale":[
				1.0670615434646606,
				1.0670615434646606,
				1.0670615434646606
			],
			"translation":[
				5.231027603149414,
				10.826220512390137,
				0.21659895777702332
			]
		}
	],
	"materials":[
		{
			"doubleSided":true,
			"name":"tong",
			"pbrMetallicRoughness":{
				"baseColorTexture":{
					"index":0
				},
				"metallicFactor":10,
				"roughnessFactor":0.5
			}
		},
		{
			"doubleSided":true,
			"name":"caizhi.001",
			"pbrMetallicRoughness":{
				"baseColorTexture":{
					"index":1
				},
				"metallicFactor":0.30000001192092896,
				"roughnessFactor":0.20000000298023224
			}
		},
		{
			"doubleSided":true,
			"name":"caodi",
			"pbrMetallicRoughness":{
				"baseColorTexture":{
					"index":2
				},
				"metallicFactor":0,
				"roughnessFactor":0.5
			}
		},
		{
			"doubleSided":true,
			"name":"mut",
			"pbrMetallicRoughness":{
				"baseColorTexture":{
					"index":3
				},
				"metallicFactor":0
			}
		},
		{
			"doubleSided":true,
			"name":"shuij",
			"pbrMetallicRoughness":{
				"baseColorFactor":[
					0.800000011920929,
					0.800000011920929,
					0.800000011920929,
					1
				],
				"metallicFactor":0
			}
		},
		{
			"doubleSided":true,
			"name":"shui.001",
			"pbrMetallicRoughness":{
				"baseColorFactor":[
					0.800000011920929,
					0.800000011920929,
					0.800000011920929,
					1
				],
				"metallicFactor":0
			}
		}
	],
	"meshes":[
		{
			"name":"zhuti",
			"primitives":[
				{
					"attributes":{
						"POSITION":0,
						"NORMAL":1,
						"TEXCOORD_0":2,
						"TEXCOORD_1":3
					},
					"indices":4,
					"material":0
				},
				{
					"attributes":{
						"POSITION":5,
						"NORMAL":6,
						"TEXCOORD_0":7,
						"TEXCOORD_1":8
					},
					"indices":9,
					"material":1
				}
			]
		},
		{
			"name":"caoping",
			"primitives":[
				{
					"attributes":{
						"POSITION":10,
						"NORMAL":11,
						"TEXCOORD_0":12
					},
					"indices":13,
					"material":2
				}
			]
		},
		{
			"name":"shuij.001",
			"primitives":[
				{
					"attributes":{
						"POSITION":14,
						"NORMAL":15,
						"TEXCOORD_0":16
					},
					"indices":17,
					"material":3
				}
			]
		},
		{
			"name":"shuij01",
			"primitives":[
				{
					"attributes":{
						"POSITION":18,
						"NORMAL":19,
						"TEXCOORD_0":20
					},
					"indices":21,
					"material":4
				}
			]
		},
		{
			"name":"shui01",
			"primitives":[
				{
					"attributes":{
						"POSITION":22,
						"NORMAL":23,
						"TEXCOORD_0":24
					},
					"indices":25,
					"material":5
				}
			]
		},
		{
			"name":"mmut",
			"primitives":[
				{
					"attributes":{
						"POSITION":26,
						"NORMAL":27,
						"TEXCOORD_0":28
					},
					"indices":29,
					"material":3
				}
			]
		},
		{
			"name":"mmut.001",
			"primitives":[
				{
					"attributes":{
						"POSITION":30,
						"NORMAL":31,
						"TEXCOORD_0":32
					},
					"indices":33,
					"material":3
				}
			]
		}
	],
	"textures":[
		{
			"sampler":0,
			"source":0
		},
		{
			"sampler":0,
			"source":1
		},
		{
			"sampler":1,
			"source":2
		},
		{
			"sampler":0,
			"source":3
		}
	],
	"images":[
		{
			"mimeType":"image/jpeg",
			"name":"tonggc",
			"uri":"tonggc.jpg"
		},
		{
			"mimeType":"image/jpeg",
			"name":"qt",
			"uri":"qt.jpg"
		},
		{
			"mimeType":"image/jpeg",
			"name":"cdi",
			"uri":"cdi.jpg"
		},
		{
			"mimeType":"image/jpeg",
			"name":"mt",
			"uri":"mt.jpg"
		}
	],
	"accessors":[
		{
			"bufferView":0,
			"componentType":5126,
			"count":410,
			"max":[
				1.2366490364074707,
				1.416899561882019,
				1.1466660499572754
			],
			"min":[
				-1.2256804704666138,
				-1.0058070421218872,
				-1.1466660499572754
			],
			"type":"VEC3"
		},
		{
			"bufferView":1,
			"componentType":5126,
			"count":410,
			"type":"VEC3"
		},
		{
			"bufferView":2,
			"componentType":5126,
			"count":410,
			"type":"VEC2"
		},
		{
			"bufferView":3,
			"componentType":5126,
			"count":410,
			"type":"VEC2"
		},
		{
			"bufferView":4,
			"componentType":5123,
			"count":1890,
			"type":"SCALAR"
		},
		{
			"bufferView":5,
			"componentType":5126,
			"count":687,
			"max":[
				1.2929258346557617,
				2.524155378341675,
				0.1271204650402069
			],
			"min":[
				-1.2599831819534302,
				1.1026018857955933,
				-0.12279094755649567
			],
			"type":"VEC3"
		},
		{
			"bufferView":6,
			"componentType":5126,
			"count":687,
			"type":"VEC3"
		},
		{
			"bufferView":7,
			"componentType":5126,
			"count":687,
			"type":"VEC2"
		},
		{
			"bufferView":8,
			"componentType":5126,
			"count":687,
			"type":"VEC2"
		},
		{
			"bufferView":9,
			"componentType":5123,
			"count":3660,
			"type":"SCALAR"
		},
		{
			"bufferView":10,
			"componentType":5126,
			"count":4,
			"max":[
				1,
				0,
				1
			],
			"min":[
				-1,
				0,
				-1
			],
			"type":"VEC3"
		},
		{
			"bufferView":11,
			"componentType":5126,
			"count":4,
			"type":"VEC3"
		},
		{
			"bufferView":12,
			"componentType":5126,
			"count":4,
			"type":"VEC2"
		},
		{
			"bufferView":13,
			"componentType":5123,
			"count":6,
			"type":"SCALAR"
		},
		{
			"bufferView":14,
			"componentType":5126,
			"count":570,
			"max":[
				5.030707836151123,
				2.151747703552246,
				4.4486870765686035
			],
			"min":[
				-2.3791732788085938,
				-5.959049224853516,
				-2.9879751205444336
			],
			"type":"VEC3"
		},
		{
			"bufferView":15,
			"componentType":5126,
			"count":570,
			"type":"VEC3"
		},
		{
			"bufferView":16,
			"componentType":5126,
			"count":570,
			"type":"VEC2"
		},
		{
			"bufferView":17,
			"componentType":5123,
			"count":1266,
			"type":"SCALAR"
		},
		{
			"bufferView":18,
			"componentType":5126,
			"count":219,
			"max":[
				1.5325721502304077,
				0.8591509461402893,
				1.5325804948806763
			],
			"min":[
				-1.532575249671936,
				-1.0257048606872559,
				-1.532567024230957
			],
			"type":"VEC3"
		},
		{
			"bufferView":19,
			"componentType":5126,
			"count":219,
			"type":"VEC3"
		},
		{
			"bufferView":20,
			"componentType":5126,
			"count":219,
			"type":"VEC2"
		},
		{
			"bufferView":21,
			"componentType":5123,
			"count":1122,
			"type":"SCALAR"
		},
		{
			"bufferView":22,
			"componentType":5126,
			"count":130,
			"max":[
				1.392534852027893,
				0.19326257705688477,
				1.3925349712371826
			],
			"min":[
				-1.3925349712371826,
				-1,
				-1.3925349712371826
			],
			"type":"VEC3"
		},
		{
			"bufferView":23,
			"componentType":5126,
			"count":130,
			"type":"VEC3"
		},
		{
			"bufferView":24,
			"componentType":5126,
			"count":130,
			"type":"VEC2"
		},
		{
			"bufferView":25,
			"componentType":5123,
			"count":372,
			"type":"SCALAR"
		},
		{
			"bufferView":26,
			"componentType":5126,
			"count":224,
			"max":[
				0.34679165482521057,
				0.8802585601806641,
				1.2586320638656616
			],
			"min":[
				-0.40441450476646423,
				-0.3350086212158203,
				-0.44359317421913147
			],
			"type":"VEC3"
		},
		{
			"bufferView":27,
			"componentType":5126,
			"count":224,
			"type":"VEC3"
		},
		{
			"bufferView":28,
			"componentType":5126,
			"count":224,
			"type":"VEC2"
		},
		{
			"bufferView":29,
			"componentType":5123,
			"count":498,
			"type":"SCALAR"
		},
		{
			"bufferView":30,
			"componentType":5126,
			"count":192,
			"max":[
				0.5927217602729797,
				-1.6520423889160156,
				0.4541573226451874
			],
			"min":[
				-0.36484938859939575,
				-8.41626262664795,
				-0.5200179219245911
			],
			"type":"VEC3"
		},
		{
			"bufferView":31,
			"componentType":5126,
			"count":192,
			"type":"VEC3"
		},
		{
			"bufferView":32,
			"componentType":5126,
			"count":192,
			"type":"VEC2"
		},
		{
			"bufferView":33,
			"componentType":5123,
			"count":372,
			"type":"SCALAR"
		}
	],
	"bufferViews":[
		{
			"buffer":0,
			"byteLength":4920,
			"byteOffset":0,
			"target":34962
		},
		{
			"buffer":0,
			"byteLength":4920,
			"byteOffset":4920,
			"target":34962
		},
		{
			"buffer":0,
			"byteLength":3280,
			"byteOffset":9840,
			"target":34962
		},
		{
			"buffer":0,
			"byteLength":3280,
			"byteOffset":13120,
			"target":34962
		},
		{
			"buffer":0,
			"byteLength":3780,
			"byteOffset":16400,
			"target":34963
		},
		{
			"buffer":0,
			"byteLength":8244,
			"byteOffset":20180,
			"target":34962
		},
		{
			"buffer":0,
			"byteLength":8244,
			"byteOffset":28424,
			"target":34962
		},
		{
			"buffer":0,
			"byteLength":5496,
			"byteOffset":36668,
			"target":34962
		},
		{
			"buffer":0,
			"byteLength":5496,
			"byteOffset":42164,
			"target":34962
		},
		{
			"buffer":0,
			"byteLength":7320,
			"byteOffset":47660,
			"target":34963
		},
		{
			"buffer":0,
			"byteLength":48,
			"byteOffset":54980,
			"target":34962
		},
		{
			"buffer":0,
			"byteLength":48,
			"byteOffset":55028,
			"target":34962
		},
		{
			"buffer":0,
			"byteLength":32,
			"byteOffset":55076,
			"target":34962
		},
		{
			"buffer":0,
			"byteLength":12,
			"byteOffset":55108,
			"target":34963
		},
		{
			"buffer":0,
			"byteLength":6840,
			"byteOffset":55120,
			"target":34962
		},
		{
			"buffer":0,
			"byteLength":6840,
			"byteOffset":61960,
			"target":34962
		},
		{
			"buffer":0,
			"byteLength":4560,
			"byteOffset":68800,
			"target":34962
		},
		{
			"buffer":0,
			"byteLength":2532,
			"byteOffset":73360,
			"target":34963
		},
		{
			"buffer":0,
			"byteLength":2628,
			"byteOffset":75892,
			"target":34962
		},
		{
			"buffer":0,
			"byteLength":2628,
			"byteOffset":78520,
			"target":34962
		},
		{
			"buffer":0,
			"byteLength":1752,
			"byteOffset":81148,
			"target":34962
		},
		{
			"buffer":0,
			"byteLength":2244,
			"byteOffset":82900,
			"target":34963
		},
		{
			"buffer":0,
			"byteLength":1560,
			"byteOffset":85144,
			"target":34962
		},
		{
			"buffer":0,
			"byteLength":1560,
			"byteOffset":86704,
			"target":34962
		},
		{
			"buffer":0,
			"byteLength":1040,
			"byteOffset":88264,
			"target":34962
		},
		{
			"buffer":0,
			"byteLength":744,
			"byteOffset":89304,
			"target":34963
		},
		{
			"buffer":0,
			"byteLength":2688,
			"byteOffset":90048,
			"target":34962
		},
		{
			"buffer":0,
			"byteLength":2688,
			"byteOffset":92736,
			"target":34962
		},
		{
			"buffer":0,
			"byteLength":1792,
			"byteOffset":95424,
			"target":34962
		},
		{
			"buffer":0,
			"byteLength":996,
			"byteOffset":97216,
			"target":34963
		},
		{
			"buffer":0,
			"byteLength":2304,
			"byteOffset":98212,
			"target":34962
		},
		{
			"buffer":0,
			"byteLength":2304,
			"byteOffset":100516,
			"target":34962
		},
		{
			"buffer":0,
			"byteLength":1536,
			"byteOffset":102820,
			"target":34962
		},
		{
			"buffer":0,
			"byteLength":744,
			"byteOffset":104356,
			"target":34963
		}
	],
	"samplers":[
		{
			"magFilter":9729,
			"minFilter":9987
		},
		{
			"magFilter":9729,
			"minFilter":9987,
			"wrapS":33071,
			"wrapT":33071
		}
	],
	"buffers":[
		{
			"byteLength":105100,
			"uri":"shuijin.bin"
		}
	]
}
