<?xml version="1.0" encoding="UTF-8"?>
<svg width="20px" height="20px" viewBox="0 0 20 20" version="1.1" xmlns="http://www.w3.org/2000/svg" xmlns:xlink="http://www.w3.org/1999/xlink">
    <title>家校数据分析</title>
    <g id="家校数据分析" stroke="none" stroke-width="1" fill="none" fill-rule="evenodd">
        <g transform="translate(0.8334, 2.5)" fill="#303133" id="形状结合">
            <path d="M14.999987,0 C16.840987,0 18.333287,1.49239 18.333287,3.33334 L18.333287,11.66663 C18.333287,13.50763 16.840987,15.00003 14.999987,15.00003 L3.333337,15.00003 C1.492387,15.00003 0,13.50763 0,11.66663 L0,3.33334 C0,1.49239 1.492387,0 3.333337,0 L14.999987,0 Z M14.999987,1.66667 L3.333337,1.66667 C2.412857,1.66667 1.666667,2.41286 1.666667,3.33334 L1.666667,11.66663 C1.666667,12.58713 2.412857,13.33333 3.333337,13.33333 L14.999987,13.33333 C15.920487,13.33333 16.666687,12.58713 16.666687,11.66663 L16.666687,3.33334 C16.666687,2.41286 15.920487,1.66667 14.999987,1.66667 Z M9.166687,3.75 C9.626987,3.75 10.000087,4.1231 10.000087,4.58334 L10.000087,10.41663 C10.000087,10.87693 9.626987,11.25003 9.166687,11.25003 C8.706467,11.25003 8.333377,10.87693 8.333377,10.41663 L8.333377,4.58334 C8.333377,4.1231 8.706467,3.75 9.166687,3.75 Z M5.833337,5.83338 C6.293567,5.83338 6.666667,6.20647 6.666667,6.66671 L6.666667,10.41673 C6.666667,10.87693 6.293567,11.25003 5.833337,11.25003 C5.373097,11.25003 4.999997,10.87693 4.999997,10.41673 L4.999997,6.66671 C4.999997,6.20647 5.373097,5.83338 5.833337,5.83338 Z M12.499987,6.66663 C12.960287,6.66663 13.333387,7.03973 13.333387,7.49993 L13.333387,10.41663 C13.333387,10.87683 12.960287,11.24993 12.499987,11.24993 C12.039787,11.24993 11.666687,10.87683 11.666687,10.41663 L11.666687,7.49993 C11.666687,7.03973 12.039787,6.66663 12.499987,6.66663 Z"></path>
        </g>
    </g>
</svg>