<svg width="21" height="20" viewBox="0 0 21 20" fill="none" xmlns="http://www.w3.org/2000/svg">
<path fill-rule="evenodd" clip-rule="evenodd" d="M15.0833 3.33317H6.74992C5.36921 3.33317 4.24992 4.45246 4.24992 5.83317V12.4998C4.24992 13.8805 5.36921 14.9998 6.74992 14.9998H8.16427C8.65783 14.9998 9.14035 15.1459 9.55102 15.4197L10.9166 16.3301L12.2821 15.4197C12.6928 15.1459 13.1753 14.9998 13.6689 14.9998H15.0833C16.464 14.9998 17.5833 13.8805 17.5833 12.4998V5.83317C17.5833 4.45246 16.464 3.33317 15.0833 3.33317ZM6.74992 1.6665C4.44873 1.6665 2.58325 3.53198 2.58325 5.83317V12.4998C2.58325 14.801 4.44873 16.6665 6.74992 16.6665H8.16427C8.32879 16.6665 8.48963 16.7152 8.62652 16.8065L10.4543 18.025C10.7343 18.2116 11.0989 18.2116 11.3788 18.025L13.2066 16.8065C13.3435 16.7152 13.5044 16.6665 13.6689 16.6665H15.0833C17.3844 16.6665 19.2499 14.801 19.2499 12.4998V5.83317C19.2499 3.53198 17.3844 1.6665 15.0833 1.6665H6.74992Z" fill="#303133"/>
<path fill-rule="evenodd" clip-rule="evenodd" d="M13.9344 7.50023C14.2598 7.17479 14.2598 6.64715 13.9344 6.32171C13.609 5.99628 13.0813 5.99628 12.7559 6.32171L11.5416 7.53597L12.7202 8.71448L13.9344 7.50023ZM12.1309 9.30374L10.9524 8.12523L8.12338 10.9542C8.07949 10.9981 8.04595 11.0513 8.02523 11.1098L7.58563 12.3514C7.51544 12.5496 7.70649 12.7407 7.90474 12.6705L9.14633 12.2309C9.20485 12.2102 9.258 12.1766 9.30189 12.1327L12.1309 9.30374Z" fill="#303133"/>
</svg>
