<?xml version="1.0" encoding="UTF-8"?>
<svg width="20px" height="20px" viewBox="0 0 20 20" version="1.1" xmlns="http://www.w3.org/2000/svg" xmlns:xlink="http://www.w3.org/1999/xlink">
    <title>未选</title>
    <g id="未选" stroke="none" stroke-width="1" fill="none" fill-rule="evenodd">
        <g id="学员影集" transform="translate(1.6667, 1.6667)" fill="#303133" fill-rule="nonzero">
            <path d="M10.833335,0 C12.6742762,0 14.16667,1.49238973 14.16667,3.333335 L14.16667,13.333335 C14.16667,15.1742732 12.6742732,16.66667 10.833335,16.66667 L5.833335,16.66667 C3.99238973,16.66667 2.5,15.1742762 2.5,13.333335 L2.5,3.333335 C2.5,1.49238679 3.99238679,0 5.833335,0 L10.833335,0 Z M10.833335,1.66667 L5.833335,1.66667 C4.91286321,1.66667 4.16667,2.41286321 4.16667,3.333335 L4.16667,13.333335 C4.16667,14.2538008 4.91286718,15 5.833335,15 L10.833335,15 C11.7537968,15 12.5,14.2537968 12.5,13.333335 L12.5,3.333335 C12.5,2.41286718 11.7538008,1.66667 10.833335,1.66667 Z M7.96161889,5.9739469 L10.4615989,7.6406669 C10.9563703,7.97052767 10.9563582,8.69757413 10.4615758,9.02741846 L7.96159585,10.6940185 C7.40779832,11.063205 6.66602,10.6662102 6.66602,10.000635 L6.66602,6.667315 C6.66602,6.00172721 7.40782319,5.604735 7.96161889,5.9739469 Z M0.833335,3.33398 C1.29357321,3.33398 1.66667,3.70707679 1.66667,4.167315 L1.66667,12.500635 C1.66667,12.9608732 1.29357321,13.33397 0.833335,13.33397 C0.373096788,13.33397 0,12.9608732 0,12.500635 L0,4.167315 C0,3.70707679 0.373096788,3.33398 0.833335,3.33398 Z M15.833335,3.33398 C16.2935732,3.33398 16.66667,3.70707679 16.66667,4.167315 L16.66667,12.500635 C16.66667,12.9608732 16.2935732,13.33397 15.833335,13.33397 C15.3730968,13.33397 15,12.9608732 15,12.500635 L15,4.167315 C15,3.70707679 15.3730968,3.33398 15.833335,3.33398 Z" id="形状结合"></path>
        </g>
    </g>
</svg>