<svg width="20" height="20" viewBox="0 0 20 20" fill="none" xmlns="http://www.w3.org/2000/svg">
<path fill-rule="evenodd" clip-rule="evenodd" d="M16.6667 11.6667C16.6667 10.286 15.5474 9.16669 14.1667 9.16669H5.83335C4.45309 9.16669 3.33408 10.2852 3.33335 11.6653V13.3334C3.33335 15.0592 4.64502 16.4788 6.32587 16.6495C6.43793 16.6609 6.55163 16.6667 6.66669 16.6667H13.3334C15.0592 16.6667 16.4788 15.355 16.6495 13.6742C16.6609 13.5621 16.6667 13.4484 16.6667 13.3333V11.6667ZM16.6667 7.96645V8.33305C15.9703 7.80997 15.1047 7.50002 14.1667 7.50002H5.83335C4.89535 7.50002 4.02974 7.80997 3.33335 8.33305V6.66669C3.33335 4.82574 4.82574 3.33335 6.66669 3.33335H9.33104C9.71235 3.33335 10.0684 3.52392 10.2799 3.84119C11.1097 5.08578 12.5065 5.83335 14.0023 5.83335H14.5336C15.7117 5.83335 16.6667 6.78837 16.6667 7.96645ZM18.3334 11.6667V7.96645C18.3334 5.8679 16.6321 4.16669 14.5336 4.16669H14.0023C13.0638 4.16669 12.1873 3.69762 11.6667 2.91669C11.1461 2.13576 10.2696 1.66669 9.33104 1.66669H6.66669C3.90526 1.66669 1.66669 3.90526 1.66669 6.66669V11.6667V13.3334C1.66669 15.9222 3.63419 18.0515 6.15547 18.3075C6.32355 18.3246 6.4941 18.3334 6.66669 18.3334H13.3334C15.9222 18.3334 18.0515 16.3659 18.3075 13.8446C18.3246 13.6765 18.3334 13.5059 18.3334 13.3333V11.6667Z" fill="#303133"/>
</svg>
