<svg width="20" height="20" viewBox="0 0 20 20" fill="none" xmlns="http://www.w3.org/2000/svg">
<g id="Planet (&#230;&#152;&#159;&#231;&#144;&#131;)">
<path id="Vector" d="M10.0026 16.6693C13.6845 16.6693 16.6693 13.6845 16.6693 10.0026C16.6693 6.32069 13.6845 3.33594 10.0026 3.33594C6.32069 3.33594 3.33594 6.32069 3.33594 10.0026C3.33594 13.6845 6.32069 16.6693 10.0026 16.6693Z" stroke="#303133" stroke-width="1.66667" stroke-linejoin="round"/>
<path id="Vector_2" d="M15.6502 6.46875C17.4082 6.62217 18.6146 7.1615 18.8528 8.0505C19.3292 9.82871 15.7513 12.3325 10.8612 13.6428C5.97108 14.953 1.6206 14.5737 1.14413 12.7955C0.894494 11.8638 1.75781 10.733 3.33968 9.67904" stroke="#303133" stroke-width="1.66667" stroke-linecap="round" stroke-linejoin="round"/>
<circle id="Ellipse 325" cx="12" cy="7" r="1" fill="#303133"/>
<circle id="Ellipse 326" cx="9.5" cy="6.5" r="0.5" fill="#303133"/>
</g>
</svg>
