<?xml version="1.0" encoding="UTF-8"?>
<svg width="20px" height="20px" viewBox="0 0 20 20" version="1.1" xmlns="http://www.w3.org/2000/svg" xmlns:xlink="http://www.w3.org/1999/xlink">
    <title>动态</title>
    <g id="页面-1" stroke="none" stroke-width="1" fill="none" fill-rule="evenodd">
        <g id="动态" fill="#303133">
            <path d="M1.66699,9.99984 C1.66699,5.39746 5.39795,1.6665 10.0003,1.6665 C14.6027,1.6665 18.3337,5.39746 18.3337,9.99984 C18.3337,14.6022 14.6027,18.3332 10.0003,18.3332 C5.39795,18.3332 1.66699,14.6022 1.66699,9.99984 Z M10.0003,3.33317 C6.31842,3.33317 3.33366,6.31794 3.33366,9.99984 C3.33366,13.6817 6.31842,16.6665 10.0003,16.6665 C13.6822,16.6665 16.667,13.6817 16.667,9.99984 C16.667,6.31794 13.6822,3.33317 10.0003,3.33317 Z" id="形状"></path>
            <path d="M13.9223,6.0776 C14.1455,6.30079 14.2234,6.63093 14.1236,6.93038 L12.4569,11.9304 C12.374,12.1792 12.1787,12.3745 11.9299,12.4574 L6.92989,14.1241 C6.63044,14.2239 6.3003,14.146 6.07711,13.9228 C5.85391,13.6996 5.77598,13.3694 5.87579,13.07 L7.54246,8.07 C7.62541,7.82116 7.82067,7.6259 8.06951,7.54295 L13.0695,5.87628 C13.369,5.77647 13.6991,5.8544 13.9223,6.0776 Z M8.99184,8.99233 L7.98398,12.0159 L11.0076,11.008 L12.0154,7.98447 L8.99184,8.99233 Z" id="形状"></path>
            <path d="M10.0003,10.8332 C10.4606,10.8332 10.8337,10.4601 10.8337,9.99984 C10.8337,9.53959 10.4606,9.1665 10.0003,9.1665 C9.54008,9.1665 9.16699,9.53959 9.16699,9.99984 C9.16699,10.4601 9.54008,10.8332 10.0003,10.8332 Z" id="路径"></path>
        </g>
    </g>
</svg>