<svg width="20" height="20" viewBox="0 0 20 20" fill="none" xmlns="http://www.w3.org/2000/svg">
<path d="M12.2603 17.0834C13.4415 17.0834 14.5345 16.4582 15.1334 15.44L17.3392 11.6901C17.9528 10.6469 17.9528 9.35314 17.3392 8.30999L15.1334 4.55999C14.5345 3.54184 13.4415 2.91669 12.2603 2.91669H7.7399C6.5587 2.91669 5.46571 3.54181 4.86681 4.55993L2.66088 8.30993C2.04723 9.3531 2.04723 10.6469 2.66088 11.6901L4.8668 15.4401C5.46571 16.4582 6.5587 17.0834 7.7399 17.0834H12.2603Z" stroke="#303133" stroke-width="1.66667" stroke-linejoin="round"/>
<path d="M10 12.0834C11.1506 12.0834 12.0834 11.1506 12.0834 10C12.0834 8.84944 11.1506 7.91669 10 7.91669C8.84944 7.91669 7.91669 8.84944 7.91669 10C7.91669 11.1506 8.84944 12.0834 10 12.0834Z" stroke="#303133" stroke-width="1.66667" stroke-linejoin="round"/>
</svg>
