<svg width="21" height="20" viewBox="0 0 21 20" fill="none" xmlns="http://www.w3.org/2000/svg">
<path fill-rule="evenodd" clip-rule="evenodd" d="M17.5833 14.9999V9.55555C17.5833 9.10722 17.4026 8.6778 17.0822 8.36426L12.665 4.04233C11.6933 3.09158 10.1399 3.09158 9.16819 4.04233L4.75099 8.36426C4.43054 8.6778 4.24992 9.10722 4.24992 9.55555V14.9999C4.24992 16.3806 5.36921 17.4999 6.74992 17.4999H15.0833C16.464 17.4999 17.5833 16.3806 17.5833 14.9999ZM3.5854 7.17297C2.94449 7.80005 2.58325 8.65889 2.58325 9.55555V14.9999C2.58325 17.3011 4.44873 19.1666 6.74992 19.1666H15.0833C17.3844 19.1666 19.2499 17.3011 19.2499 14.9999V9.55555C19.2499 8.6589 18.8887 7.80005 18.2478 7.17297L13.8306 2.85104C12.211 1.26645 9.62212 1.26645 8.0026 2.85104L3.5854 7.17297Z" fill="#303133"/>
<path fill-rule="evenodd" clip-rule="evenodd" d="M10.9166 15.8335C10.4563 15.8335 10.0833 15.4604 10.0833 15.0002L10.0833 12.5002C10.0833 12.0399 10.4563 11.6668 10.9166 11.6668C11.3768 11.6668 11.7499 12.0399 11.7499 12.5002L11.7499 15.0002C11.7499 15.4604 11.3768 15.8335 10.9166 15.8335Z" fill="#303133"/>
</svg>
