<svg width="21" height="20" viewBox="0 0 21 20" fill="none" xmlns="http://www.w3.org/2000/svg">
<path fill-rule="evenodd" clip-rule="evenodd" d="M2.75215 7.17297C2.11124 7.80005 1.75 8.6589 1.75 9.55555V14.9999C1.75 17.3011 3.61548 19.1666 5.91667 19.1666H14.25C16.5512 19.1666 18.4167 17.3011 18.4167 14.9999V9.55555C18.4167 8.6589 18.0554 7.80006 17.4145 7.17298L12.9973 2.85104C11.3778 1.26645 8.78887 1.26645 7.16935 2.85104L2.75215 7.17297ZM10.0833 15.0002C9.6231 15.0002 9.25 14.6271 9.25 14.1669V12.5002H7.58333C7.1231 12.5002 6.75 12.1271 6.75 11.6669C6.75 11.2067 7.1231 10.8336 7.58333 10.8336H9.25V9.1669C9.25 8.70666 9.6231 8.33357 10.0833 8.33357C10.5436 8.33357 10.9167 8.70666 10.9167 9.1669V10.8336H12.5833C13.0436 10.8336 13.4167 11.2067 13.4167 11.6669C13.4167 12.1271 13.0436 12.5002 12.5833 12.5002H10.9167V14.1669C10.9167 14.6271 10.5436 15.0002 10.0833 15.0002Z" fill="url(#paint0_linear_3905_18530)"/>
<defs>
<linearGradient id="paint0_linear_3905_18530" x1="18.4167" y1="11.6667" x2="1.76003" y2="12.0753" gradientUnits="userSpaceOnUse">
<stop stop-color="#A863FF"/>
<stop offset="1" stop-color="#5B32FF"/>
</linearGradient>
</defs>
</svg>
