<svg width="20" height="20" viewBox="0 0 20 20" fill="none" xmlns="http://www.w3.org/2000/svg">
<g id="AI&#230;&#128;&#187;&#231;&#187;&#147;2">
<path id="Rectangle 34624537" d="M3.33301 5.26025C3.33301 3.96584 4.38234 2.9165 5.67676 2.9165H7.03431C7.0612 2.9165 7.08301 2.93831 7.08301 2.96521L-nan -nanL7.08301 2.96521C7.08301 3.62866 7.62085 4.1665 8.28431 4.1665H11.715C12.3785 4.1665 12.9163 3.62866 12.9163 2.96521L-nan -nanL12.9163 2.96521C12.9163 2.93831 12.9381 2.9165 12.965 2.9165H14.3226C15.617 2.9165 16.6663 3.96584 16.6663 5.26025V15.8332C16.6663 17.2139 15.5471 18.3332 14.1663 18.3332H5.83301C4.4523 18.3332 3.33301 17.2139 3.33301 15.8332V5.26025Z" fill="url(#paint0_linear_4410_32924)"/>
<path id="Union" fill-rule="evenodd" clip-rule="evenodd" d="M13.5766 2.0835H14.3229C16.0776 2.0835 17.5 3.50593 17.5 5.26058V15.8335C17.5 17.6744 16.0076 19.1668 14.1667 19.1668H5.83333C3.99238 19.1668 2.5 17.6744 2.5 15.8335V5.26058C2.5 3.50592 3.92243 2.0835 5.67708 2.0835H6.42335C6.74483 1.3477 7.47903 0.833496 8.33333 0.833496H11.6667C12.521 0.833496 13.2552 1.3477 13.5766 2.0835ZM11.6667 3.3335C11.8968 3.3335 12.0833 3.14695 12.0833 2.91683C12.0833 2.68671 11.8968 2.50016 11.6667 2.50016H8.33333C8.10321 2.50016 7.91667 2.68671 7.91667 2.91683C7.91667 3.14695 8.10322 3.3335 8.33333 3.3335H11.6667Z" fill="url(#paint1_linear_4410_32924)"/>
<g id="Group 16341">
<path id="Vector 128" d="M10.001 10.8037V14.0576" stroke="white" stroke-width="1.09381"/>
<path id="Line 15" d="M9.0293 14.0259H10.9737" stroke="white" stroke-width="1.09381" stroke-linecap="round"/>
<path id="Rectangle 34624491" d="M7.08398 8.19238H7.73201C8.98494 8.19238 10.0007 9.20809 10.0007 10.461V12.0817H9.35263C8.09969 12.0817 7.08398 11.066 7.08398 9.81306V8.19238Z" fill="white" stroke="white" stroke-width="0.648184" stroke-linejoin="round"/>
<path id="Rectangle 34624492" d="M12.917 8.83984H12.269C11.016 8.83984 10.0003 9.85555 10.0003 11.1085V12.0809H10.6483C11.9013 12.0809 12.917 11.0652 12.917 9.8123V8.83984Z" fill="white" stroke="white" stroke-width="0.648184" stroke-linejoin="round"/>
</g>
</g>
<defs>
<linearGradient id="paint0_linear_4410_32924" x1="16.6663" y1="12.3006" x2="3.34094" y2="12.6257" gradientUnits="userSpaceOnUse">
<stop stop-color="#A863FF"/>
<stop offset="1" stop-color="#5B32FF"/>
</linearGradient>
<linearGradient id="paint1_linear_4410_32924" x1="17.5" y1="11.9929" x2="2.50799" y2="12.339" gradientUnits="userSpaceOnUse">
<stop stop-color="#A863FF"/>
<stop offset="1" stop-color="#5B32FF"/>
</linearGradient>
</defs>
</svg>
