<svg width="21" height="20" viewBox="0 0 21 20" fill="none" xmlns="http://www.w3.org/2000/svg">
<path fill-rule="evenodd" clip-rule="evenodd" d="M6.24992 1.6665C3.94873 1.6665 2.08325 3.53198 2.08325 5.83317V12.4998C2.08325 14.801 3.94873 16.6665 6.24992 16.6665H8.40474C8.62575 16.6665 8.83772 16.7543 8.994 16.9106L9.82733 17.7439C10.1528 18.0694 10.6804 18.0694 11.0058 17.7439L11.8392 16.9106C11.9955 16.7543 12.2074 16.6665 12.4284 16.6665H14.5833C16.8844 16.6665 18.7499 14.801 18.7499 12.4998V5.83317C18.7499 3.53198 16.8844 1.6665 14.5833 1.6665H6.24992ZM13.8799 5.4165C13.8799 5.4165 13.777 5.61762 13.3202 5.85216L13.257 5.88447C12.8666 6.08311 12.2857 6.37871 12.2177 7.24139C12.5346 6.54733 13.221 6.22547 13.545 6.1082C13.5475 6.10702 13.5501 6.10637 13.5528 6.10621C13.5555 6.10605 13.5582 6.10637 13.5608 6.10726C13.5633 6.10815 13.5657 6.10955 13.5677 6.11135C13.5697 6.11315 13.5714 6.11535 13.5725 6.11778C13.5737 6.12022 13.5744 6.12279 13.5746 6.12549C13.5747 6.12819 13.5744 6.131 13.5735 6.13356C13.5726 6.13611 13.5712 6.13843 13.5694 6.14045C13.5676 6.14247 13.5654 6.14406 13.563 6.14524C12.3564 6.88956 12.2356 7.78105 12.2356 7.78105C12.2356 7.78105 13.8799 7.31797 14.1083 6.63348C14.1713 6.42726 14.1835 6.2089 14.1437 5.99695C14.1039 5.785 14.0134 5.58578 13.8799 5.4165ZM9.04278 6.73818C8.88523 6.73841 8.73084 6.78239 8.59678 6.8652C8.46272 6.94802 8.35425 7.06642 8.28344 7.20725L5.83325 12.0943H8.98179L9.36325 10.9468H7.91753L9.36325 8.25911L10.3091 12.0884H11.7632L10.3845 6.73222L9.04278 6.73818ZM12.2786 8.08324V12.0943H13.7279V7.41071C13.2388 7.77808 12.4663 8.0258 12.2822 8.08324H12.2786Z" fill="url(#paint0_linear_3905_18541)"/>
<defs>
<linearGradient id="paint0_linear_3905_18541" x1="18.7499" y1="11.6013" x2="2.09708" y2="12.0811" gradientUnits="userSpaceOnUse">
<stop stop-color="#A863FF"/>
<stop offset="1" stop-color="#5B32FF"/>
</linearGradient>
</defs>
</svg>
