<?xml version="1.0" encoding="UTF-8"?>
<svg width="20px" height="20px" viewBox="0 0 20 20" version="1.1" xmlns="http://www.w3.org/2000/svg" xmlns:xlink="http://www.w3.org/1999/xlink">
    <title>家校数据分析-选中</title>
    <defs>
        <linearGradient x1="100%" y1="57.2765669%" x2="0.118773027%" y2="60.0943936%" id="linearGradient-1">
            <stop stop-color="#A863FF" offset="0%"></stop>
            <stop stop-color="#5B32FF" offset="100%"></stop>
        </linearGradient>
    </defs>
    <g id="家校数据分析-选中" stroke="none" stroke-width="1" fill="none" fill-rule="evenodd">
        <g transform="translate(0.8334, 2.5)" id="路径">
            <path d="M0,3.33333 C0,1.49238 1.492387,-8.8817842e-16 3.333337,-8.8817842e-16 L14.999987,-8.8817842e-16 C16.840987,-8.8817842e-16 18.333287,1.49238 18.333287,3.33333 L18.333287,11.66667 C18.333287,13.50757 16.840987,14.99997 14.999987,14.99997 L3.333337,14.99997 C1.492387,14.99997 0,13.50757 0,11.66667 L0,3.33333 Z" fill="url(#linearGradient-1)"></path>
            <path d="M13.908287,4.41009 C14.233987,4.7352 14.234587,5.26283 13.909487,5.5886 L9.760087,9.74657 C9.437187,10.07007 8.914147,10.07317 8.587457,9.75367 L7.318777,8.51267 L5.550437,10.23877 C5.221097,10.56027 4.693497,10.55387 4.372017,10.22457 C4.050527,9.89517 4.056907,9.36757 4.386247,9.04617 L6.737287,6.75121 C7.061267,6.43497 7.578457,6.43524 7.902097,6.75181 L9.163097,7.98527 L12.729687,4.41131 C13.054787,4.08553 13.582487,4.08499 13.908287,4.41009 Z" fill="#FFFFFF"></path>
        </g>
    </g>
</svg>