<?xml version="1.0" encoding="UTF-8"?>
<svg width="20px" height="20px" viewBox="0 0 20 20" version="1.1" xmlns="http://www.w3.org/2000/svg" xmlns:xlink="http://www.w3.org/1999/xlink">
    <title>已选</title>
    <defs>
        <linearGradient x1="72.2222222%" y1="60.8693333%" x2="27.7935111%" y2="62.1233333%" id="linearGradient-1">
            <stop stop-color="#A863FF" offset="0%"></stop>
            <stop stop-color="#5B32FF" offset="100%"></stop>
        </linearGradient>
        <linearGradient x1="100%" y1="60.8692313%" x2="0.0794999364%" y2="63.688629%" id="linearGradient-2">
            <stop stop-color="#A863FF" offset="0%"></stop>
            <stop stop-color="#5B32FF" offset="100%"></stop>
        </linearGradient>
    </defs>
    <g id="已选" stroke="none" stroke-width="1" fill="none" fill-rule="evenodd">
        <g id="学员影集2" transform="translate(1.666, 1.666)">
            <path d="M13.33398,3.33398 C13.33398,1.95327 12.21468,0.83398 10.83398,0.83398 L5.83398,0.83398 C4.45327,0.83398 3.33398,1.95327 3.33398,3.33398 L3.33398,13.33398 C3.33398,14.71468 4.45327,15.83398 5.83398,15.83398 L10.83398,15.83398 C12.21468,15.83398 13.33398,14.71468 13.33398,13.33398 L13.33398,3.33398 Z" id="路径" stroke="url(#linearGradient-1)" stroke-width="1.66667" fill="url(#linearGradient-1)" fill-rule="nonzero" stroke-linecap="round" stroke-linejoin="round"></path>
            <path d="M5.83268,0 C3.99173,0 2.49934,1.49238 2.49934,3.33333 L2.49934,13.33328 C2.49934,15.17428 3.99173,16.66668 5.83268,16.66668 L10.83268,16.66668 C12.67358,16.66668 14.16598,15.17428 14.16598,13.33328 L14.16598,3.33333 C14.16598,1.49238 12.67358,0 10.83268,0 L5.83268,0 Z M0.83333,3.33268 C1.29357,3.33268 1.66666,3.70577 1.66666,4.16601 L1.66666,12.49938 C1.66666,12.95958 1.29357,13.33268 0.83333,13.33268 C0.37309,13.33268 0,12.95958 0,12.49938 L0,4.16601 C0,3.70577 0.37309,3.33268 0.83333,3.33268 Z M16.66668,4.16601 C16.66668,3.70577 16.29358,3.33268 15.83328,3.33268 C15.37308,3.33268 14.99998,3.70577 14.99998,4.16601 L14.99998,12.49938 C14.99998,12.95958 15.37308,13.33268 15.83328,13.33268 C16.29358,13.33268 16.66668,12.95958 16.66668,12.49938 L16.66668,4.16601 Z" id="形状" fill="url(#linearGradient-2)"></path>
            <path d="M6.66731,6.666663 C7.12754711,6.666663 7.500643,6.29356711 7.500643,5.83333 C7.500643,5.37309289 7.12754711,4.999997 6.66731,4.999997 C6.20707289,4.999997 5.833977,5.37309289 5.833977,5.83333 C5.833977,6.29356711 6.20707289,6.666663 6.66731,6.666663 Z M5.83398,10.833315 C5.16839988,10.833315 4.77140611,10.091527 5.14060251,9.53773019 L5.97393251,8.28773019 C6.3037836,7.79295158 7.0308311,7.79294957 7.36068493,8.28772635 L7.50024382,8.496997 L8.47330678,7.03774379 C8.80316427,6.54296548 9.53021694,6.54297354 9.86006346,7.03775915 L11.5266635,9.53773915 C11.89585,10.0915367 11.4988552,10.833315 10.83328,10.833315 L5.83398,10.833315 Z" id="形状结合" fill="#FFFFFF" fill-rule="nonzero"></path>
            <polygon id="路径" fill="#FFFFFF" fill-rule="nonzero" points="7.5 9.99998 9.16668 7.5 10.83328 9.99998"></polygon>
            <polygon id="路径" fill="#FFFFFF" fill-rule="nonzero" points="5.83398 9.99998 6.66731 8.74998 7.50065 9.99998"></polygon>
        </g>
    </g>
</svg>