<svg width="20" height="20" viewBox="0 0 20 20" fill="none" xmlns="http://www.w3.org/2000/svg">
<g id="AI&#230;&#128;&#187;&#231;&#187;&#147;">
<path id="Vector" d="M11.6663 1.6665H8.33301C7.64265 1.6665 7.08301 2.22615 7.08301 2.9165C7.08301 3.60686 7.64265 4.1665 8.33301 4.1665H11.6663C12.3567 4.1665 12.9163 3.60686 12.9163 2.9165C12.9163 2.22615 12.3567 1.6665 11.6663 1.6665Z" stroke="#303133" stroke-width="1.66667" stroke-linecap="round" stroke-linejoin="round"/>
<path id="Rectangle 34624537" d="M3.33301 5.26026C3.33301 3.96584 4.38234 2.9165 5.67676 2.9165H7.03431C7.0612 2.9165 7.08301 2.93831 7.08301 2.96521V2.96521C7.08301 3.62866 7.62085 4.1665 8.28431 4.1665H11.715C12.3785 4.1665 12.9163 3.62866 12.9163 2.96521V2.96521C12.9163 2.93831 12.9381 2.9165 12.965 2.9165H14.3226C15.617 2.9165 16.6663 3.96584 16.6663 5.26025V15.8332C16.6663 17.2139 15.5471 18.3332 14.1663 18.3332H5.83301C4.45229 18.3332 3.33301 17.2139 3.33301 15.8332V5.26026Z" stroke="#303133" stroke-width="1.66667" stroke-linecap="round" stroke-linejoin="round"/>
<path id="Vector_2" d="M10.0001 7.58594L10.9422 9.64924L13.1956 9.90757L11.5243 11.4411L11.975 13.664L10.0001 12.5485L8.02525 13.664L8.47593 11.4411L6.80469 9.90757L9.05811 9.64924L10.0001 7.58594Z" stroke="#303133" stroke-width="1.5" stroke-linecap="round" stroke-linejoin="round"/>
</g>
</svg>
