<?xml version="1.0" standalone="no"?><!DOCTYPE svg PUBLIC "-//W3C//DTD SVG 1.1//EN" "http://www.w3.org/Graphics/SVG/1.1/DTD/svg11.dtd"><svg t="1710232036116" class="icon" viewBox="0 0 1024 1024" version="1.1" xmlns="http://www.w3.org/2000/svg" p-id="3278" xmlns:xlink="http://www.w3.org/1999/xlink" width="200" height="200"><path d="M745.472 421.674667a115.84 115.84 0 0 0-88.746667-90.410667 66.944 66.944 0 0 1-52.053333-65.28c0-31.36 21.76-58.88 52.053333-65.365333 10.922667-2.218667 21.162667-6.186667 30.762667-11.306667-56.448-48.426667-127.573333-74.88-201.472-72.874667-161.749333 2.005333-296.533333 137.088-299.776 300.117334a304.042667 304.042667 0 0 0 115.797333 246.613333c27.690667 21.973333 41.642667 50.645333 46.208 81.493333h291.712c6.101333-31.488 15.274667-61.738667 43.605334-84.821333a304.512 304.512 0 0 0 107.690666-187.946667 67.242667 67.242667 0 0 1-45.781333-50.218666z m-84.138667 79.786666a63.488 63.488 0 0 0-48.64 49.493334 13.866667 13.866667 0 0 1-13.482666 11.093333 13.866667 13.866667 0 0 1-13.525334-11.093333 63.488 63.488 0 0 0-48.64-49.493334 13.994667 13.994667 0 0 1-10.88-13.781333c0-6.698667 4.565333-12.458667 10.88-13.781333a63.488 63.488 0 0 0 48.64-49.536 13.866667 13.866667 0 0 1 13.482667-11.093334c6.570667 0 12.245333 4.650667 13.525333 11.093334a63.488 63.488 0 0 0 48.64 49.493333 13.994667 13.994667 0 0 1 10.88 13.824 13.568 13.568 0 0 1-10.88 13.738667z" fill="#FFC821" p-id="3279"></path><path d="M717.013333 477.653333a302.549333 302.549333 0 0 1-109.525333 187.52c-28.8 23.296-38.101333 53.418667-44.330667 84.693334h82.474667c6.186667-31.488 15.530667-61.610667 44.330667-84.693334a302.549333 302.549333 0 0 0 109.482666-187.52M693.930667 195.712c-57.386667-48.298667-129.664-74.666667-204.8-72.704-11.946667 0.256-23.893333 1.322667-35.669334 2.688a304.682667 304.682667 0 0 1 158.037334 70.016h82.432z" fill="#FFB300" p-id="3280"></path><path d="M349.098667 827.264c0 19.072 15.146667 34.602667 33.706666 34.602667h50.389334c0 38.101333 30.08 69.034667 67.157333 69.034666 37.12 0 67.157333-30.933333 67.157333-69.034666h50.432c18.56 0 33.706667-15.530667 33.706667-34.602667v-36.010667H349.098667v36.010667z" fill="#6E4017" p-id="3281"></path><path d="M442.197333 861.098667c0 38.528 26.026667 69.802667 58.154667 69.802666s58.197333-31.274667 58.197333-69.802666h-116.352z" fill="#38210C" p-id="3282"></path><path d="M963.413333 255.573333a166.357333 166.357333 0 0 1-128.554666-128.554666 17.066667 17.066667 0 0 0-16.853334-13.525334 17.322667 17.322667 0 0 0-16.810666 13.525334 166.357333 166.357333 0 0 1-128.597334 128.554666 16.938667 16.938667 0 0 0-13.482666 16.853334c0 8.192 5.76 15.061333 13.482666 16.853333a166.357333 166.357333 0 0 1 128.597334 128.554667 17.066667 17.066667 0 0 0 16.810666 13.525333 17.322667 17.322667 0 0 0 16.853334-13.525333A166.357333 166.357333 0 0 1 963.413333 289.28a16.938667 16.938667 0 0 0 13.525334-16.853333 17.322667 17.322667 0 0 0-13.525334-16.853334z" fill="#FF5E6C" p-id="3283"></path><path d="M963.498667 255.573333c-3.541333-0.682667-6.869333-2.005333-10.410667-3.114666a17.706667 17.706667 0 0 1-9.088 5.12 181.248 181.248 0 0 0-140.330667 140.288 17.749333 17.749333 0 0 1-5.12 9.088c0.938667 3.541333 2.261333 6.869333 3.114667 10.410666a16.938667 16.938667 0 0 0 16.853333 13.525334 17.322667 17.322667 0 0 0 16.853334-13.525334 166.357333 166.357333 0 0 1 128.554666-128.554666 16.938667 16.938667 0 0 0 13.525334-16.853334 18.133333 18.133333 0 0 0-13.952-16.384z" fill="#E84855" p-id="3284"></path><path d="M558.506667 791.253333V861.013333H614.4c20.48 0 37.290667-15.36 37.290667-34.218666v-35.584H558.506667z" fill="#38210C" p-id="3285"></path></svg>