<?xml version="1.0" standalone="no"?><!DOCTYPE svg PUBLIC "-//W3C//DTD SVG 1.1//EN" "http://www.w3.org/Graphics/SVG/1.1/DTD/svg11.dtd"><svg t="1709609980975" class="icon" viewBox="0 0 1024 1024" version="1.1" xmlns="http://www.w3.org/2000/svg" p-id="4211" xmlns:xlink="http://www.w3.org/1999/xlink" width="200" height="200"><path d="M215.488 151.488v787.2a44.8 44.8 0 1 1-89.6 0V128c0-36.48 29.568-66.112 66.112-66.112h426.688c36.48 0 66.112 29.568 66.112 66.112v810.688a44.8 44.8 0 1 1-89.6 0v-787.2H215.488z" p-id="4212"></path><path d="M601.6 296.96a44.8 44.8 0 0 1 61.44-15.36l213.376 128a44.8 44.8 0 0 1 21.76 38.4v490.688a44.8 44.8 0 1 1-89.6 0V473.344L616.96 358.4a44.8 44.8 0 0 1-15.36-61.44z" p-id="4213"></path><path d="M40.512 938.688a44.8 44.8 0 0 1 44.8-44.8h853.376a44.8 44.8 0 1 1 0 89.6H85.312a44.8 44.8 0 0 1-44.8-44.8z" p-id="4214"></path></svg>