<?xml version="1.0" standalone="no"?><!DOCTYPE svg PUBLIC "-//W3C//DTD SVG 1.1//EN" "http://www.w3.org/Graphics/SVG/1.1/DTD/svg11.dtd"><svg t="1709557654485" class="icon" viewBox="0 0 1024 1024" version="1.1" xmlns="http://www.w3.org/2000/svg" p-id="8446" xmlns:xlink="http://www.w3.org/1999/xlink" width="200" height="200"><path d="M490.7008 309.4016a38.4 38.4 0 0 1 42.5984 0l256 170.6496a38.4 38.4 0 0 1 17.1008 31.9488v110.9504h89.6c44.8 0 81.0496 36.3008 81.0496 81.0496v192c0 44.8-36.2496 81.0496-81.0496 81.0496H85.3504a38.4 38.4 0 0 1-38.4-38.4V704c0-44.7488 36.3008-81.0496 81.0496-81.0496h89.6V512a38.4 38.4 0 0 1 17.1008-31.9488l256-170.6496zM294.4 532.5824v128.768a38.4 38.4 0 0 1-38.4 38.4H128a4.2496 4.2496 0 0 0-4.2496 4.2496v196.2496H896a4.2496 4.2496 0 0 0 4.2496-4.2496v-192a4.2496 4.2496 0 0 0-4.2496-4.2496H768a38.4 38.4 0 0 1-38.4-38.4v-128.768L512 387.4816l-217.6 145.1008z" p-id="8447"></path><path d="M512 89.6a38.4 38.4 0 0 1 38.4 38.4v213.3504a38.4 38.4 0 0 1-76.8 0V128a38.4 38.4 0 0 1 38.4-38.4z" p-id="8448"></path><path d="M525.7216 68.352c35.5328-14.2336 80.9984-8.704 135.5776 27.6992 41.4208 27.648 59.9552 22.0672 64.4608 20.2752a19.456 19.456 0 0 0 8.4992-6.656 38.4 38.4 0 0 1 72.1408 18.3296V256a38.4 38.4 0 0 1-4.096 17.152L768 256c34.304 17.152 34.304 17.2032 34.304 17.2544l-0.0512 0.1536-0.1536 0.256-0.3072 0.5632a58.112 58.112 0 0 1-3.2256 5.4272 96.1536 96.1536 0 0 1-44.3392 35.9936c-35.4816 14.2336-80.896 8.704-135.5264-27.648L640 256l-21.2992 31.9488c-41.4208-27.5968-59.9552-22.0672-64.4608-20.2752a19.456 19.456 0 0 0-8.4992 6.656A38.4 38.4 0 0 1 473.6 256V128a38.4 38.4 0 0 1 4.096-17.152L512 128l-34.304-17.2032v-0.1024l0.0512-0.1024 0.1536-0.256 0.3072-0.5632a60.8768 60.8768 0 0 1 3.2256-5.4272 96.2048 96.2048 0 0 1 44.3392-35.9936z m24.6784 73.3696v48.2816c31.1296-3.9936 68.1984 5.632 110.8992 34.048 41.4208 27.648 59.9552 22.0672 64.4608 20.2752a19.4048 19.4048 0 0 0 3.84-2.048V194.048c-31.1296 3.9424-68.1984-5.632-110.8992-34.0992-41.4208-27.5968-59.9552-22.0672-64.4608-20.2752a19.4048 19.4048 0 0 0-3.84 2.048zM388.2496 661.3504a38.4 38.4 0 0 1 38.4-38.4h170.7008a38.4 38.4 0 0 1 38.4 38.4v277.2992a38.4 38.4 0 0 1-76.8 0v-238.8992H465.0496v238.8992a38.4 38.4 0 0 1-76.8 0v-277.2992z" p-id="8449"></path><path d="M345.6 938.6496a38.4 38.4 0 0 1 38.4-38.4h256a38.4 38.4 0 1 1 0 76.8h-256a38.4 38.4 0 0 1-38.4-38.4z" p-id="8450"></path></svg>