<?xml version="1.0" standalone="no"?><!DOCTYPE svg PUBLIC "-//W3C//DTD SVG 1.1//EN" "http://www.w3.org/Graphics/SVG/1.1/DTD/svg11.dtd"><svg t="1709789880418" class="icon" viewBox="0 0 1024 1024" version="1.1" xmlns="http://www.w3.org/2000/svg" p-id="2993" xmlns:xlink="http://www.w3.org/1999/xlink" width="200" height="200"><path d="M0 139.648a46.528 46.528 0 0 1 46.528-46.528h354.944a51.2 51.2 0 0 1 47.04 30.976l25.088 58.56h503.872a46.528 46.528 0 0 1 46.528 46.592v546.88a46.528 46.528 0 0 1-46.528 46.592H46.528A46.528 46.528 0 0 1 0 776.128V139.648z" fill="#FFA000" p-id="2994"></path><path d="M46.528 276.928h930.944c31.04 0 46.528 15.552 46.528 46.528v558.592c0 31.04-15.488 46.528-46.528 46.528H46.528c-31.04 0-46.528-15.488-46.528-46.528V323.456c0-30.976 15.488-46.528 46.528-46.528z" fill="#FFCA28" p-id="2995"></path></svg>