<?xml version="1.0" standalone="no"?><!DOCTYPE svg PUBLIC "-//W3C//DTD SVG 1.1//EN" "http://www.w3.org/Graphics/SVG/1.1/DTD/svg11.dtd"><svg t="1709789873467" class="icon" viewBox="0 0 1024 1024" version="1.1" xmlns="http://www.w3.org/2000/svg" p-id="2850" xmlns:xlink="http://www.w3.org/1999/xlink" width="200" height="200"><path d="M85.312 192v682.688L192 448h650.624V320a42.688 42.688 0 0 0-42.624-42.688H512l-106.688-128H128A42.688 42.688 0 0 0 85.312 192z" fill="#FFA000" p-id="2851"></path><path d="M42.688 192c0-47.168 38.208-85.312 85.312-85.312h277.376c12.672 0 24.64 5.568 32.768 15.36l93.888 112.64H800c47.168 0 85.376 38.144 85.376 85.312v128a42.688 42.688 0 0 1-42.688 42.688H225.344l-98.56 394.304a42.688 42.688 0 0 1-84.096-10.368V192z m342.656 0h-257.28V528l22.592-90.432A42.688 42.688 0 0 1 192 405.312h608V320H512a42.688 42.688 0 0 1-32.768-15.36L385.344 192z" fill="#FFA000" p-id="2852"></path><path d="M140.608 320h646.784c29.76 0 44.608 15.488 44.608 46.528v418.944c0 31.04-14.848 46.528-44.608 46.528H140.608c-29.76 0-44.608-15.488-44.608-46.528V366.528c0-31.04 14.848-46.528 44.608-46.528z" fill="#FFFFFF" p-id="2853"></path><path d="M853.312 874.688L938.624 448H187.968l-102.656 426.688h768z" fill="#FFCA28" p-id="2854"></path><path d="M146.56 438.016c4.608-19.2 21.76-32.64 41.472-32.64h750.656a42.688 42.688 0 0 1 41.856 51.008l-85.376 426.688a42.688 42.688 0 0 1-41.792 34.304h-768a42.688 42.688 0 0 1-41.536-52.672L146.56 438.016z m75.072 52.672L139.52 832h678.848l68.288-341.312H221.696z" fill="#FFCA28" p-id="2855"></path></svg>